#!OML:ASF E:\Steps\Project 1\Capture day 1\Session 2\Subject.ASF
:FULLY-SPECIFIED
:DEGREES
241
root 8.28675 15.185 13.5248 -142.379 -12.8877 164.593
lowerback -5.2247 -4.94364 -4.91089
upperback 2.40723 -6.30589 -2.10109
thorax 5.72211 -3.31751 -0.114571
lowerneck -6.85079 -6.98613 -0.110497
upperneck 12.7662 -9.89826 0.908272
head 5.01426 -4.88049 -0.335482
rclavicle 2.38542e-015 -1.03368e-014
rhumerus -30.78 13.9617 -69.9426
rradius 65.4366
rwrist -11.9248
rhand -6.06637 -54.7969
rfingers 7.12502
rthumb 19.7686 -443.812
lclavicle 2.38542e-015 -1.03368e-014
lhumerus -25.9732 -23.2496 49.204
lradius 38.1833
lwrist 3.54084
lhand -22.5842 -18.81
lfingers 7.12502
lthumb 3.84464 11.1351
rfemur -72.9329 -30.5821 -0.555295
rtibia 54.9666
rfoot -21.9219 -11.3275
rtoes -28.8605
lfemur -20.1615 -14.1786 8.72469
ltibia 27.4848
lfoot -26.0713 9.07519
ltoes -52.5142
242
root 8.32508 15.1811 13.4898 -142.087 -12.765 164.388
lowerback -5.06569 -4.9001 -4.23825
upperback 2.35728 -6.29796 -1.98643
thorax 5.51625 -3.2841 -0.339674
lowerneck -7.0054 -7.02346 -0.0361464
upperneck 12.7005 -9.93776 0.821268
head 5.01174 -4.89869 -0.380086
rclavicle 2.38542e-015 2.06736e-014
rhumerus -30.2489 14.0665 -69.5759
rradius 65.8112
rwrist -11.6454
rhand -6.40672 -54.6954
rfingers 7.12502
rthumb 19.4413 -443.744
lclavicle 2.38542e-015 2.06736e-014
lhumerus -25.7568 -23.7142 49.2849
lradius 38.8921
lwrist 4.13759
lhand -22.9417 -18.5103
lfingers 7.12502
lthumb 3.49936 11.4407
rfemur -73.4099 -30.3949 -0.658489
rtibia 55.5006
rfoot -22.1296 -11.4534
rtoes -28.275
lfemur -20.3158 -14.315 8.64725
ltibia 27.3415
lfoot -25.7309 9.25509
ltoes -52.1487
243
root 8.36462 15.1773 13.4553 -141.817 -12.6034 164.151
lowerback -5.01111 -4.889 -3.6687
upperback 2.42289 -6.31983 -1.90251
thorax 5.50068 -3.27347 -0.562872
lowerneck -7.0447 -6.95009 0.160952
upperneck 12.3027 -9.79906 0.642754
head 4.87554 -4.83091 -0.445749
rclavicle -3.95581e-014 -4.77083e-015
rhumerus -29.5179 14.067 -69.2229
rradius 66.2648
rwrist -11.706
rhand -6.25238 -55.4101
rfingers 7.12502
rthumb 19.5897 -444.443
lclavicle -3.95581e-014 -4.77083e-015
lhumerus -25.4358 -24.0155 49.2283
lradius 39.5883
lwrist 4.51321
lhand -23.2941 -17.9317
lfingers 7.12502
lthumb 3.15912 12.0247
rfemur -73.8781 -30.2316 -0.781619
rtibia 56.0329
rfoot -22.3273 -11.5393
rtoes -27.6284
lfemur -20.4417 -14.4549 8.52829
ltibia 27.2385
lfoot -25.6716 9.23991
ltoes -51.2735
244
root 8.40644 15.1743 13.4211 -141.644 -12.4977 163.951
lowerback -4.84961 -4.89167 -3.12402
upperback 2.47679 -6.36391 -1.78297
thorax 5.41915 -3.27494 -0.727127
lowerneck -7.05357 -6.91602 0.305241
upperneck 12.0269 -9.71829 0.417779
head 4.77284 -4.79843 -0.523149
rclavicle 1.74931e-014 4.57205e-014
rhumerus -28.8177 13.9489 -68.8731
rradius 66.5136
rwrist -11.9277
rhand -5.87612 -56.0271
rfingers 7.12502
rthumb 19.9514 -445.023
lclavicle 1.74931e-014 4.57205e-014
lhumerus -25.207 -24.1478 49.1843
lradius 40.262
lwrist 4.69964
lhand -23.6347 -17.8129
lfingers 7.12502
lthumb 2.83011 12.148
rfemur -74.137 -30.0883 -0.873148
rtibia 56.3642
rfoot -22.4839 -11.6071
rtoes -26.804
lfemur -20.4575 -14.4928 8.45839
ltibia 27.1147
lfoot -25.2195 9.369
ltoes -51.1681
245
root 8.45111 15.1725 13.3869 -141.545 -12.3981 163.785
lowerback -4.56088 -4.92613 -2.77418
upperback 2.44004 -6.44232 -1.52916
thorax 5.20803 -3.30018 -0.632712
lowerneck -6.86105 -6.91884 0.172121
upperneck 11.8555 -9.68953 0.298015
head 4.68799 -4.80189 -0.524603
rclavicle -5.56597e-015 -2.74323e-014
rhumerus -28.3692 14.2144 -68.4578
rradius 66.5572
rwrist -11.7113
rhand -6.26276 -55.5501
rfingers 7.12502
rthumb 19.5798 -444.584
lclavicle -5.56597e-015 -2.74323e-014
lhumerus -25.2482 -24.2199 49.3633
lradius 40.9672
lwrist 4.95187
lhand -23.9227 -17.9267
lfingers 7.12502
lthumb 2.55201 12.0378
rfemur -74.3151 -29.984 -0.847859
rtibia 56.5812
rfoot -22.5796 -11.6443
rtoes -26.2963
lfemur -20.3077 -14.6039 8.39958
ltibia 26.8096
lfoot -24.3933 9.82541
ltoes -51.9027
246
root 8.49506 15.1693 13.3543 -141.305 -12.1456 163.534
lowerback -4.41529 -4.87109 -2.54734
upperback 2.48929 -6.38738 -1.39523
thorax 5.16613 -3.26562 -0.601961
lowerneck -6.9799 -6.92783 0.310899
upperneck 11.6016 -9.67992 0.180632
head 4.61678 -4.7951 -0.578185
rclavicle -4.29375e-014 -2.10712e-014
rhumerus -27.7515 14.1325 -67.9813
rradius 66.9609
rwrist -12.907
rhand -6.32173 -56.7707
rfingers 7.12502
rthumb 19.523 -445.811
lclavicle -4.29375e-014 -2.10712e-014
lhumerus -24.786 -24.5615 49.2777
lradius 41.6663
lwrist 5.36489
lhand -23.794 -17.3586
lfingers 7.12502
lthumb 2.67627 12.6044
rfemur -74.8022 -29.9377 -0.842781
rtibia 56.9311
rfoot -22.6613 -11.7485
rtoes -26.3537
lfemur -20.2686 -14.6917 8.19482
ltibia 26.5949
lfoot -23.7615 10.1354
ltoes -52.2536
247
root 8.53548 15.1649 13.3223 -140.992 -11.8604 163.24
lowerback -4.4196 -4.86956 -2.3652
upperback 2.47233 -6.39553 -1.26676
thorax 5.1454 -3.26264 -0.569114
lowerneck -6.84981 -6.83769 0.383129
upperneck 10.9606 -9.53872 0.0970159
head 4.87671 -4.72963 -0.645665
rclavicle -1.59028e-014 -5.1684e-014
rhumerus -27.3069 14.2602 -67.5977
rradius 67.1516
rwrist -13.5908
rhand -6.32015 -56.8963
rfingers 7.12502
rthumb 19.5246 -445.936
lclavicle -1.59028e-014 -5.1684e-014
lhumerus -24.498 -24.8106 49.2068
lradius 42.3338
lwrist 5.54646
lhand -23.5048 -16.7107
lfingers 7.12502
lthumb 2.95556 13.2485
rfemur -75.4642 -29.8476 -0.935512
rtibia 57.5578
rfoot -22.976 -11.8009
rtoes -25.5299
lfemur -20.3572 -14.6695 7.93133
ltibia 26.516
lfoot -23.1537 10.4284
ltoes -52.9147
248
root 8.57602 15.1618 13.2908 -140.828 -11.7045 162.989
lowerback -4.31475 -4.88249 -2.11247
upperback 2.5774 -6.43347 -1.10608
thorax 5.18674 -3.27437 -0.541705
lowerneck -6.98982 -6.86628 0.332961
upperneck 11.2347 -9.57786 0.219814
head 4.50652 -4.74071 -0.55429
rclavicle -1.39149e-014 1.27222e-014
rhumerus -26.7869 14.2324 -67.2111
rradius 67.173
rwrist -13.8205
rhand -5.96454 -56.7223
rfingers 7.12502
rthumb 19.8664 -445.727
lclavicle -1.39149e-014 1.27222e-014
lhumerus -24.0418 -24.7429 49.1229
lradius 42.9036
lwrist 5.47954
lhand -23.4816 -16.6481
lfingers 7.12502
lthumb 2.97804 13.3108
rfemur -75.8922 -29.7465 -1.01591
rtibia 58.2081
rfoot -23.3987 -11.7931
rtoes -24.2613
lfemur -20.2911 -14.9591 7.78441
ltibia 26.2886
lfoot -22.5391 10.5565
ltoes -52.8503
249
root 8.61601 15.1606 13.2595 -140.726 -11.5221 162.732
lowerback -4.11729 -4.86497 -1.87366
upperback 2.65684 -6.43249 -0.982797
thorax 5.1453 -3.26768 -0.530795
lowerneck -7.13205 -7.07686 0.282388
upperneck 11.252 -9.87988 0.396453
head 4.54712 -4.87706 -0.517733
rclavicle 1.51076e-014 -1.59028e-015
rhumerus -26.2983 14.1811 -66.8425
rradius 66.9948
rwrist -14.2798
rhand -6.19062 -56.1234
rfingers 7.12502
rthumb 19.6491 -445.15
lclavicle 1.51076e-014 -1.59028e-015
lhumerus -23.544 -24.8247 49.0317
lradius 43.3874
lwrist 5.5716
lhand -23.4929 -17.0489
lfingers 7.12502
lthumb 2.96708 12.9102
rfemur -76.1337 -29.774 -1.05588
rtibia 58.4824
rfoot -23.4618 -11.8395
rtoes -24.007
lfemur -20.1028 -15.3878 7.61616
ltibia 25.9374
lfoot -22.0477 10.6752
ltoes -52.4343
250
root 8.65323 15.1592 13.2307 -140.566 -11.3068 162.519
lowerback -4.01516 -4.85585 -1.54902
upperback 2.66102 -6.44218 -0.883708
thorax 5.06685 -3.26163 -0.596729
lowerneck -7.09725 -7.26356 0.199443
upperneck 11.39 -10.1576 0.521255
head 4.59494 -5.01034 -0.486874
rclavicle 1.74931e-014 -1.59028e-014
rhumerus -26.0058 14.3291 -66.5626
rradius 66.8487
rwrist -14.7193
rhand -6.71043 -55.4979
rfingers 7.12502
rthumb 19.1493 -444.575
lclavicle 1.74931e-014 -1.59028e-014
lhumerus -23.1366 -25.1653 48.8985
lradius 43.8017
lwrist 5.83087
lhand -23.4727 -17.1032
lfingers 7.12502
lthumb 2.98663 12.8556
rfemur -76.4848 -29.8515 -0.961953
rtibia 58.6438
rfoot -23.3777 -11.8266
rtoes -24.2404
lfemur -20.0425 -15.5575 7.47028
ltibia 25.7245
lfoot -21.7137 10.7785
ltoes -52.2582
